{
  "accessors": [
    {
      "bufferView": 2,
      "componentType": 5126,
      "count": 65532,
      "max": [
        47.628860473632812,
        46.806121826171875,
        127.86209106445312
      ],
      "min": [
        -40.190719604492188,
        -55.339248657226562,
        33.611701965332031
      ],
      "type": "VEC3"
    },
    {
      "bufferView": 2,
      "byteOffset": 786384,
      "componentType": 5126,
      "count": 65532,
      "max": [
        1,
        0.99999892711639404,
        1
      ],
      "min": [
        -0.99999701976776123,
        -0.99999642372131348,
        -0.9988287091255188
      ],
      "type": "VEC3"
    },
    {
      "bufferView": 1,
      "componentType": 5126,
      "count": 65532,
      "max": [
        0.94098055362701416,
        0.63590896129608154
      ],
      "min": [
        0.45958450436592102,
        5.2928924560546875e-05
      ],
      "type": "VEC2"
    },
    {
      "bufferView": 0,
      "componentType": 5125,
      "count": 342942,
      "max": [
        65531
      ],
      "min": [
        0
      ],
      "type": "SCALAR"
    },
    {
      "bufferView": 2,
      "byteOffset": 1572768,
      "componentType": 5126,
      "count": 65532,
      "max": [
        49.563663482666016,
        44.124721527099609,
        115.52864837646484
      ],
      "min": [
        -57.570686340332031,
        -49.436679840087891,
        -67.919662475585938
      ],
      "type": "VEC3"
    },
    {
      "bufferView": 2,
      "byteOffset": 2359152,
      "componentType": 5126,
      "count": 65532,
      "max": [
        0.99994766712188721,
        0.99999821186065674,
        0.87384957075119019
      ],
      "min": [
        -0.99999517202377319,
        -0.99999916553497314,
        -0.9997134804725647
      ],
      "type": "VEC3"
    },
    {
      "bufferView": 1,
      "byteOffset": 524256,
      "componentType": 5126,
      "count": 65532,
      "max": [
        0.93708717823028564,
        0.98422896862030029
      ],
      "min": [
        0.0068148071877658367,
        0.0051579475402832031
      ],
      "type": "VEC2"
    },
    {
      "bufferView": 0,
      "byteOffset": 1371768,
      "componentType": 5125,
      "count": 320904,
      "max": [
        65531
      ],
      "min": [
        0
      ],
      "type": "SCALAR"
    },
    {
      "bufferView": 2,
      "byteOffset": 3145536,
      "componentType": 5126,
      "count": 65532,
      "max": [
        56.720993041992188,
        52.085601806640625,
        127.98054504394531
      ],
      "min": [
        -60.029815673828125,
        -45.877410888671875,
        -73.919662475585938
      ],
      "type": "VEC3"
    },
    {
      "bufferView": 2,
      "byteOffset": 3931920,
      "componentType": 5126,
      "count": 65532,
      "max": [
        1,
        1,
        1
      ],
      "min": [
        -1,
        -1,
        -1
      ],
      "type": "VEC3"
    },
    {
      "bufferView": 1,
      "byteOffset": 1048512,
      "componentType": 5126,
      "count": 65532,
      "max": [
        0.93309289216995239,
        0.99998944997787476
      ],
      "min": [
        0.01102208998054266,
        2.0205974578857422e-05
      ],
      "type": "VEC2"
    },
    {
      "bufferView": 0,
      "byteOffset": 2655384,
      "componentType": 5125,
      "count": 321207,
      "max": [
        65531
      ],
      "min": [
        0
      ],
      "type": "SCALAR"
    },
    {
      "bufferView": 2,
      "byteOffset": 4718304,
      "componentType": 5126,
      "count": 65532,
      "max": [
        57.145782470703125,
        51.487510681152344,
        126.41790771484375
      ],
      "min": [
        -22.947853088378906,
        0.356353759765625,
        -43.919662475585938
      ],
      "type": "VEC3"
    },
    {
      "bufferView": 2,
      "byteOffset": 5504688,
      "componentType": 5126,
      "count": 65532,
      "max": [
        1,
        0.99999266862869263,
        0.9999052882194519
      ],
      "min": [
        -0.99998295307159424,
        -0.99999237060546875,
        -1
      ],
      "type": "VEC3"
    },
    {
      "bufferView": 1,
      "byteOffset": 1572768,
      "componentType": 5126,
      "count": 65532,
      "max": [
        0.93801754713058472,
        0.99994003772735596
      ],
      "min": [
        0.046257223933935165,
        7.7486038208007812e-05
      ],
      "type": "VEC2"
    },
    {
      "bufferView": 0,
      "byteOffset": 3940212,
      "componentType": 5125,
      "count": 321726,
      "max": [
        65531
      ],
      "min": [
        0
      ],
      "type": "SCALAR"
    },
    {
      "bufferView": 2,
      "byteOffset": 6291072,
      "componentType": 5126,
      "count": 65532,
      "max": [
        52.815799713134766,
        52.962394714355469,
        127.46694946289062
      ],
      "min": [
        -59.398262023925781,
        -46.169235229492188,
        -127.32199859619141
      ],
      "type": "VEC3"
    },
    {
      "bufferView": 2,
      "byteOffset": 7077456,
      "componentType": 5126,
      "count": 65532,
      "max": [
        0.99998188018798828,
        1,
        0.99680399894714355
      ],
      "min": [
        -0.99993616342544556,
        -0.99999988079071045,
        -0.99999862909317017
      ],
      "type": "VEC3"
    },
    {
      "bufferView": 1,
      "byteOffset": 2097024,
      "componentType": 5126,
      "count": 65532,
      "max": [
        0.81518304347991943,
        0.98427557945251465
      ],
      "min": [
        0.055178891867399216,
        0.1155846118927002
      ],
      "type": "VEC2"
    },
    {
      "bufferView": 0,
      "byteOffset": 5227116,
      "componentType": 5125,
      "count": 318618,
      "max": [
        65531
      ],
      "min": [
        0
      ],
      "type": "SCALAR"
    },
    {
      "bufferView": 2,
      "byteOffset": 7863840,
      "componentType": 5126,
      "count": 65532,
      "max": [
        -1.3608837127685547,
        51.196128845214844,
        128.26559448242188
      ],
      "min": [
        -48.69647216796875,
        -22.176143646240234,
        -10.806987762451172
      ],
      "type": "VEC3"
    },
    {
      "bufferView": 2,
      "byteOffset": 8650224,
      "componentType": 5126,
      "count": 65532,
      "max": [
        1,
        0.99999994039535522,
        1
      ],
      "min": [
        -0.99999833106994629,
        -1,
        -0.99943423271179199
      ],
      "type": "VEC3"
    },
    {
      "bufferView": 1,
      "byteOffset": 2621280,
      "componentType": 5126,
      "count": 65532,
      "max": [
        0.94108957052230835,
        0.99978739023208618
      ],
      "min": [
        0.028247563168406487,
        5.9187412261962891e-05
      ],
      "type": "VEC2"
    },
    {
      "bufferView": 0,
      "byteOffset": 6501588,
      "componentType": 5125,
      "count": 359880,
      "max": [
        65531
      ],
      "min": [
        0
      ],
      "type": "SCALAR"
    },
    {
      "bufferView": 2,
      "byteOffset": 9436608,
      "componentType": 5126,
      "count": 65532,
      "max": [
        16.440422058105469,
        52.322883605957031,
        76.694046020507812
      ],
      "min": [
        -61.541122436523438,
        -46.169235229492188,
        -123.60038757324219
      ],
      "type": "VEC3"
    },
    {
      "bufferView": 2,
      "byteOffset": 10222992,
      "componentType": 5126,
      "count": 65532,
      "max": [
        0.41905617713928223,
        0.99999713897705078,
        0.94820100069046021
      ],
      "min": [
        -0.99998646974563599,
        -0.99999916553497314,
        -0.98358595371246338
      ],
      "type": "VEC3"
    },
    {
      "bufferView": 1,
      "byteOffset": 3145536,
      "componentType": 5126,
      "count": 65532,
      "max": [
        0.81666809320449829,
        0.99976807832717896
      ],
      "min": [
        0.045900341123342514,
        0.11331439018249512
      ],
      "type": "VEC2"
    },
    {
      "bufferView": 0,
      "byteOffset": 7941108,
      "componentType": 5125,
      "count": 320622,
      "max": [
        65531
      ],
      "min": [
        0
      ],
      "type": "SCALAR"
    },
    {
      "bufferView": 2,
      "byteOffset": 11009376,
      "componentType": 5126,
      "count": 65532,
      "max": [
        18.013919830322266,
        51.884178161621094,
        0.37512588500976562
      ],
      "min": [
        -61.528923034667969,
        -46.909347534179688,
        -127.29618835449219
      ],
      "type": "VEC3"
    },
    {
      "bufferView": 2,
      "byteOffset": 11795760,
      "componentType": 5126,
      "count": 65532,
      "max": [
        0.32588323950767517,
        0.99998748302459717,
        0.70273506641387939
      ],
      "min": [
        -0.99999493360519409,
        -0.99999988079071045,
        -0.99999994039535522
      ],
      "type": "VEC3"
    },
    {
      "bufferView": 1,
      "byteOffset": 3669792,
      "componentType": 5126,
      "count": 65532,
      "max": [
        0.64425593614578247,
        0.99942988157272339
      ],
      "min": [
        0.16806124150753021,
        0.1121487021446228
      ],
      "type": "VEC2"
    },
    {
      "bufferView": 0,
      "byteOffset": 9223596,
      "componentType": 5125,
      "count": 326865,
      "max": [
        65531
      ],
      "min": [
        0
      ],
      "type": "SCALAR"
    },
    {
      "bufferView": 2,
      "byteOffset": 12582144,
      "componentType": 5126,
      "count": 65532,
      "max": [
        10.52362060546875,
        52.962394714355469,
        -14.519668579101562
      ],
      "min": [
        -57.0687255859375,
        -15.243637084960938,
        -127.495361328125
      ],
      "type": "VEC3"
    },
    {
      "bufferView": 2,
      "byteOffset": 13368528,
      "componentType": 5126,
      "count": 65532,
      "max": [
        0.42903068661689758,
        0.99999213218688965,
        0.66462475061416626
      ],
      "min": [
        -0.99999278783798218,
        -0.4661557674407959,
        -0.99999994039535522
      ],
      "type": "VEC3"
    },
    {
      "bufferView": 1,
      "byteOffset": 4194048,
      "componentType": 5126,
      "count": 65532,
      "max": [
        0.6025053858757019,
        0.36269146203994751
      ],
      "min": [
        0.20439319312572479,
        0.11674928665161133
      ],
      "type": "VEC2"
    },
    {
      "bufferView": 0,
      "byteOffset": 10531056,
      "componentType": 5125,
      "count": 354411,
      "max": [
        65531
      ],
      "min": [
        0
      ],
      "type": "SCALAR"
    },
    {
      "bufferView": 2,
      "byteOffset": 14154912,
      "componentType": 5126,
      "count": 65533,
      "max": [
        10.441543579101562,
        40.301120758056641,
        128.19781494140625
      ],
      "min": [
        -61.158950805664062,
        -50.345787048339844,
        -126.69349670410156
      ],
      "type": "VEC3"
    },
    {
      "bufferView": 2,
      "byteOffset": 14941308,
      "componentType": 5126,
      "count": 65533,
      "max": [
        0.99998831748962402,
        0.99992841482162476,
        0.99980658292770386
      ],
      "min": [
        -1,
        -0.9999920129776001,
        -1
      ],
      "type": "VEC3"
    },
    {
      "bufferView": 1,
      "byteOffset": 4718304,
      "componentType": 5126,
      "count": 65533,
      "max": [
        0.94138675928115845,
        0.99998360872268677
      ],
      "min": [
        9.5456831331830472e-05,
        0.00020813941955566406
      ],
      "type": "VEC2"
    },
    {
      "bufferView": 0,
      "byteOffset": 11948700,
      "componentType": 5125,
      "count": 299436,
      "max": [
        65532
      ],
      "min": [
        0
      ],
      "type": "SCALAR"
    },
    {
      "bufferView": 2,
      "byteOffset": 15727704,
      "componentType": 5126,
      "count": 65532,
      "max": [
        50.645736694335938,
        52.567741394042969,
        128.26333618164062
      ],
      "min": [
        -45.17828369140625,
        -55.326950073242188,
        -127.3243408203125
      ],
      "type": "VEC3"
    },
    {
      "bufferView": 2,
      "byteOffset": 16514088,
      "componentType": 5126,
      "count": 65532,
      "max": [
        0.99999773502349854,
        0.99999892711639404,
        0.99993813037872314
      ],
      "min": [
        -0.99998950958251953,
        -0.99959588050842285,
        -0.99999982118606567
      ],
      "type": "VEC3"
    },
    {
      "bufferView": 1,
      "byteOffset": 5242568,
      "componentType": 5126,
      "count": 65532,
      "max": [
        0.9348217248916626,
        0.93490445613861084
      ],
      "min": [
        0.35125118494033813,
        0.042948365211486816
      ],
      "type": "VEC2"
    },
    {
      "bufferView": 0,
      "byteOffset": 13146444,
      "componentType": 5125,
      "count": 339381,
      "max": [
        65531
      ],
      "min": [
        0
      ],
      "type": "SCALAR"
    },
    {
      "bufferView": 2,
      "byteOffset": 17300472,
      "componentType": 5126,
      "count": 65532,
      "max": [
        56.759796142578125,
        52.947311401367188,
        0.36194229125976562
      ],
      "min": [
        -2.5616350173950195,
        -46.576889038085938,
        -126.47125244140625
      ],
      "type": "VEC3"
    },
    {
      "bufferView": 2,
      "byteOffset": 18086856,
      "componentType": 5126,
      "count": 65532,
      "max": [
        0.99999475479125977,
        0.99999755620956421,
        0.86933183670043945
      ],
      "min": [
        -0.86931908130645752,
        -0.98977917432785034,
        -0.99999994039535522
      ],
      "type": "VEC3"
    },
    {
      "bufferView": 1,
      "byteOffset": 5766824,
      "componentType": 5126,
      "count": 65532,
      "max": [
        0.6350826621055603,
        0.74772870540618896
      ],
      "min": [
        0.17128674685955048,
        0.33521527051925659
      ],
      "type": "VEC2"
    },
    {
      "bufferView": 0,
      "byteOffset": 14503968,
      "componentType": 5125,
      "count": 341613,
      "max": [
        65531
      ],
      "min": [
        0
      ],
      "type": "SCALAR"
    },
    {
      "bufferView": 2,
      "byteOffset": 18873240,
      "componentType": 5126,
      "count": 53853,
      "max": [
        57.148345947265625,
        21.226581573486328,
        0.180328369140625
      ],
      "min": [
        -2.59564208984375,
        -46.835617065429688,
        -126.46302795410156
      ],
      "type": "VEC3"
    },
    {
      "bufferView": 2,
      "byteOffset": 19519476,
      "componentType": 5126,
      "count": 53853,
      "max": [
        0.99999523162841797,
        0.91897565126419067,
        0.99993211030960083
      ],
      "min": [
        -0.2555105984210968,
        -0.99969148635864258,
        -1
      ],
      "type": "VEC3"
    },
    {
      "bufferView": 1,
      "byteOffset": 6291080,
      "componentType": 5126,
      "count": 53853,
      "max": [
        0.64425593614578247,
        0.78010094165802002
      ],
      "min": [
        0.16980046033859253,
        0.014858007431030273
      ],
      "type": "VEC2"
    },
    {
      "bufferView": 0,
      "byteOffset": 15870420,
      "componentType": 5125,
      "count": 283146,
      "max": [
        53852
      ],
      "min": [
        0
      ],
      "type": "SCALAR"
    }
  ],
  "asset": {
    "extras": {
      "author": "ecdesign (https://sketchfab.com/ecdesign)",
      "license": "CC-BY-4.0 (http://creativecommons.org/licenses/by/4.0/)",
      "source": "https://sketchfab.com/3d-models/dogudoki-0d3d1e21a4c24ba7a2fb8950da56ab94",
      "title": "Dogudoki"
    },
    "generator": "Sketchfab-9.97.0",
    "version": "2.0"
  },
  "bufferViews": [
    {
      "buffer": 0,
      "byteLength": 17003004,
      "byteOffset": 0,
      "name": "floatBufferViews",
      "target": 34963
    },
    {
      "buffer": 0,
      "byteLength": 6721904,
      "byteOffset": 17003004,
      "byteStride": 8,
      "name": "floatBufferViews",
      "target": 34962
    },
    {
      "buffer": 0,
      "byteLength": 20165712,
      "byteOffset": 23724908,
      "byteStride": 12,
      "name": "floatBufferViews",
      "target": 34962
    }
  ],
  "buffers": [
    {
      "byteLength": 43890620,
      "uri": "scene.bin"
    }
  ],
  "images": [
    {
      "uri": "textures/material_0_baseColor.jpeg"
    }
  ],
  "materials": [
    {
      "doubleSided": true,
      "emissiveFactor": [
        0,
        0,
        0
      ],
      "name": "material_0",
      "pbrMetallicRoughness": {
        "baseColorFactor": [
          1,
          1,
          1,
          1
        ],
        "baseColorTexture": {
          "index": 0,
          "texCoord": 0
        },
        "metallicFactor": 0,
        "roughnessFactor": 0.43765867480965093
      }
    }
  ],
  "meshes": [
    {
      "primitives": [
        {
          "attributes": {
            "NORMAL": 1,
            "POSITION": 0,
            "TEXCOORD_0": 2
          },
          "indices": 3,
          "material": 0,
          "mode": 4
        }
      ]
    },
    {
      "primitives": [
        {
          "attributes": {
            "NORMAL": 5,
            "POSITION": 4,
            "TEXCOORD_0": 6
          },
          "indices": 7,
          "material": 0,
          "mode": 4
        }
      ]
    },
    {
      "primitives": [
        {
          "attributes": {
            "NORMAL": 9,
            "POSITION": 8,
            "TEXCOORD_0": 10
          },
          "indices": 11,
          "material": 0,
          "mode": 4
        }
      ]
    },
    {
      "primitives": [
        {
          "attributes": {
            "NORMAL": 13,
            "POSITION": 12,
            "TEXCOORD_0": 14
          },
          "indices": 15,
          "material": 0,
          "mode": 4
        }
      ]
    },
    {
      "primitives": [
        {
          "attributes": {
            "NORMAL": 17,
            "POSITION": 16,
            "TEXCOORD_0": 18
          },
          "indices": 19,
          "material": 0,
          "mode": 4
        }
      ]
    },
    {
      "primitives": [
        {
          "attributes": {
            "NORMAL": 21,
            "POSITION": 20,
            "TEXCOORD_0": 22
          },
          "indices": 23,
          "material": 0,
          "mode": 4
        }
      ]
    },
    {
      "primitives": [
        {
          "attributes": {
            "NORMAL": 25,
            "POSITION": 24,
            "TEXCOORD_0": 26
          },
          "indices": 27,
          "material": 0,
          "mode": 4
        }
      ]
    },
    {
      "primitives": [
        {
          "attributes": {
            "NORMAL": 29,
            "POSITION": 28,
            "TEXCOORD_0": 30
          },
          "indices": 31,
          "material": 0,
          "mode": 4
        }
      ]
    },
    {
      "primitives": [
        {
          "attributes": {
            "NORMAL": 33,
            "POSITION": 32,
            "TEXCOORD_0": 34
          },
          "indices": 35,
          "material": 0,
          "mode": 4
        }
      ]
    },
    {
      "primitives": [
        {
          "attributes": {
            "NORMAL": 37,
            "POSITION": 36,
            "TEXCOORD_0": 38
          },
          "indices": 39,
          "material": 0,
          "mode": 4
        }
      ]
    },
    {
      "primitives": [
        {
          "attributes": {
            "NORMAL": 41,
            "POSITION": 40,
            "TEXCOORD_0": 42
          },
          "indices": 43,
          "material": 0,
          "mode": 4
        }
      ]
    },
    {
      "primitives": [
        {
          "attributes": {
            "NORMAL": 45,
            "POSITION": 44,
            "TEXCOORD_0": 46
          },
          "indices": 47,
          "material": 0,
          "mode": 4
        }
      ]
    },
    {
      "primitives": [
        {
          "attributes": {
            "NORMAL": 49,
            "POSITION": 48,
            "TEXCOORD_0": 50
          },
          "indices": 51,
          "material": 0,
          "mode": 4
        }
      ]
    }
  ],
  "nodes": [
    {
      "children": [
        1
      ],
      "name": "RootNode (gltf orientation matrix)",
      "rotation": [
        -0.70710678118654746,
        -0,
        -0,
        0.70710678118654757
      ]
    },
    {
      "children": [
        2
      ],
      "name": "RootNode (model correction matrix)"
    },
    {
      "children": [
        3,
        4,
        5,
        6,
        7,
        8,
        9,
        10,
        11,
        12,
        13,
        14,
        15
      ],
      "name": "dogudoki.obj.cleaner.materialmerger.gles"
    },
    {
      "mesh": 0,
      "name": ""
    },
    {
      "mesh": 1,
      "name": ""
    },
    {
      "mesh": 2,
      "name": ""
    },
    {
      "mesh": 3,
      "name": ""
    },
    {
      "mesh": 4,
      "name": ""
    },
    {
      "mesh": 5,
      "name": ""
    },
    {
      "mesh": 6,
      "name": ""
    },
    {
      "mesh": 7,
      "name": ""
    },
    {
      "mesh": 8,
      "name": ""
    },
    {
      "mesh": 9,
      "name": ""
    },
    {
      "mesh": 10,
      "name": ""
    },
    {
      "mesh": 11,
      "name": ""
    },
    {
      "mesh": 12,
      "name": ""
    }
  ],
  "samplers": [
    {
      "magFilter": 9729,
      "minFilter": 9987,
      "wrapS": 10497,
      "wrapT": 10497
    }
  ],
  "scene": 0,
  "scenes": [
    {
      "name": "OSG_Scene",
      "nodes": [
        0
      ]
    }
  ],
  "textures": [
    {
      "sampler": 0,
      "source": 0
    }
  ]
}

